<?xml version="1.0" encoding="utf-8"?>
<!-- Generator: Adobe Illustrator 23.0.0, SVG Export Plug-In . SVG Version: 6.00 Build 0)  -->
<svg version="1.1" xmlns="http://www.w3.org/2000/svg" xmlns:xlink="http://www.w3.org/1999/xlink" x="0px" y="0px"
	 viewBox="0 0 1024 480" style="enable-background:new 0 0 1024 480;" xml:space="preserve">
<style type="text/css">
	.st0{fill:#FFFFFF;}
	.st1{fill:#250E28;}
	.st2{fill:#F4EDDA;}
	.st3{fill:#ED4723;}
	.st4{fill:#F2DAC2;}
	.st5{fill:#F4E8C0;}
	.st6{fill:#F4E4C0;}
	.st7{fill:#F9C311;}
	.st8{fill:#EB9A20;}
	.st9{fill:#F9A11B;}
	.st10{fill:#240F27;}
	.st11{fill:#F8C411;}
</style>
<g id="Layer_1">
</g>
<g id="Main">
	<g>
		<g>
			<path class="st9" d="M176.63,216.38l1.9,37.56c-5-9.48-10.34-44.8-10.34-44.8c65.48-35.84,104.59,3.1,104.59,3.1
				C214.02,185.71,176.63,216.38,176.63,216.38z M239,221.55c-38.25,0.52-47.56,13.96-47.56,13.96c14.82-6.38,44.11-1.03,44.11-1.03
				c-37.91,1.38-46.01,14.47-46.01,14.47c38.25-16.54,77.71,3.62,77.71,3.62l2.41-28.6c-32.91-30.67-83.05-4.48-83.05-4.48
				C219.01,212.59,239,221.55,239,221.55z M189.63,270.06v-4.22c0,0,38.94-21.28,65.65,2.11v2.11l10.34-6.54
				c0,0-41.27-30.72-89.34,0.68L189.63,270.06z M229.41,430.89l21.65-162.47c0,0-25.67-18.09-57.03,0l17.92,162.17l-6.03-132.02
				l7.24,47.9l7.8-60.31l1.34,144.73C225.84,431.34,229.41,430.89,229.41,430.89z"/>
			<path class="st3" d="M190.83,190.03c0.17,0.15,3.44-1.74,3.44-1.74s-11.22-20.81-10.33-36.65c0,0,8.12,17.41,17.97,22.64
				c0,0-11.22-36.22,12.05-65.99c0,0-15.01,30.47,5.92,60.59c0,0-2.48-21.07,2.48-28.9c0,0,16.38,15.15,7.3,44.23l5.51,1.04
				c0,0,14.59-16.72,6.61-61.47c0,0,21.62,25.94,1.79,64.77l4.27,2.79c0,0,15.83-9.23,15.56-37.09c0,0-0.55-28.21-27.26-65.12
				c0,0-12.67-17.59-5.23-40.22c0,0-15.7,4-29.33,51.89c0,0-1.1-9.23,2.48-23.16c0,0-22.44,29.6-17.49,60.07
				c0,0-5.78-4.88-7.3-24.73C179.26,112.98,161.78,163.65,190.83,190.03z"/>
			<path class="st10" d="M124.96,324.68c0,0,6.06,37.3,19.11,57.57c0,0,15.05,29.06,58.94,38.47l-15.36-143.22l-15.21-6.61
				l-13.06-59.44c0,0-2.87-8.28,24.07-17.46c0,0-29.52-32.82-14.43-77.52c0,0,3.1-9.6,6.83-17.62c0,0,1.82-4.64,7.84-12.94
				C122.16,99.87,72.96,146.31,55.06,206.25C56.99,206.92,108.88,225.86,124.96,324.68z M149.44,352.23c0,0,6.4,43.19,28.07,56.04
				c0,0-35.49-14.84-47.26-79.69c0,0-6.06-34.32-14.93-57.7C115.32,270.88,137.16,284.07,149.44,352.23z M126.14,402.13
				c-47.22-31.29-78.37-84.9-78.37-145.79c0-7.17,0.44-14.23,1.28-21.18c9.67,19.95,14.4,37.38,14.4,37.38l16.12,52.4
				c7.17,24.91,26.28,55.38,26.28,55.38C111.84,389.29,118.8,396.43,126.14,402.13z M203.2,422.45l0.82,7.69
				c-16.77-1.77-32.83-5.91-47.84-12.08c21.66,7.32,39.93,6.25,39.93,6.25c-74.39-11-93.51-68.3-93.51-68.3
				c-10.24-21.07-23.29-79.89-23.29-79.89c-6.44-26.75-16.61-45.7-27.11-59.04c0.84-3.65,1.79-7.25,2.85-10.8
				c0.53,0.48,1.04,0.98,1.53,1.48c2.42,2.49,4.44,5.21,6.24,8c1.99,3.08,3.7,6.27,5.24,9.5c1.59,3.33,3,6.7,4.28,10.11
				c1.23,3.25,2.33,6.54,3.35,9.83c0.89,2.88,1.7,5.77,2.46,8.67c0.57,2.2,1.1,4.4,1.6,6.61c0.78,3.52,1.58,7.06,2.49,10.54
				c0.66,2.54,1.33,5.08,2.01,7.62c0.78,2.92,1.57,5.84,2.36,8.76c0.84,3.12,1.69,6.24,2.55,9.36c0.86,3.14,1.72,6.28,2.58,9.42
				c0.82,2.98,1.64,5.95,2.46,8.93c0.73,2.63,1.45,5.26,2.18,7.89c0.58,2.1,1.17,4.21,1.75,6.31c0.39,1.4,0.78,2.79,1.17,4.19
				c0.14,0.51,0.28,1.01,0.42,1.52C121.08,403.91,175.31,419.22,203.2,422.45z M247.95,424.31c74.39-11,93.51-68.3,93.51-68.3
				c10.24-21.07,23.29-79.89,23.29-79.89c6.61-27.43,17.13-46.66,27.91-60.05c-16.5-69.97-75.05-123.7-147.51-133.06
				c1.74,4.81,3.91,8.38,3.91,8.38l14.33,22.49c33.52,61.38-8.02,80.1-8.02,80.1c1.14,0.43,2.28,0.88,3.41,1.34
				c2.22,0.91,4.43,1.88,6.59,2.93c1.67,0.82,3.31,1.69,4.89,2.65c1.19,0.72,2.35,1.49,3.45,2.34c0.8,0.62,1.56,1.28,2.25,2.02
				c0.48,0.52,0.93,1.07,1.3,1.68c0.25,0.41,0.46,0.85,0.59,1.32c0.09,0.3,0.14,0.62,0.13,0.94c-0.01,0.69-0.14,1.37-0.2,2.05
				c-0.07,0.68-0.11,1.37-0.16,2.06c-0.11,1.64-0.22,3.28-0.33,4.93c-0.1,1.51-0.2,3.03-0.31,4.54c-0.04,0.66-0.09,1.33-0.13,1.99
				l-3.01,39.69l-5.16,3.15l-9.46,5.59l-2.01,10.03l-19.77,138.2c46.66-8.54,62.54-39.18,62.54-39.18
				c13.05-20.27,19.11-57.57,19.11-57.57c16.38-100.69,69.96-118.45,69.96-118.45c-0.55,0.5-1.07,1.01-1.58,1.53
				c-2.42,2.49-4.44,5.21-6.24,8c-1.99,3.08-3.7,6.27-5.24,9.5c-1.59,3.33-3,6.7-4.28,10.11c-1.23,3.25-2.33,6.54-3.35,9.83
				c-0.89,2.88-1.7,5.77-2.46,8.67c-0.57,2.2-1.1,4.4-1.6,6.61c-0.78,3.52-1.58,7.06-2.49,10.54c-0.66,2.54-1.33,5.08-2.01,7.62
				c-0.78,2.92-1.57,5.84-2.36,8.76c-0.84,3.12-1.69,6.24-2.55,9.36c-0.86,3.14-1.72,6.28-2.58,9.42c-0.82,2.98-1.64,5.95-2.46,8.93
				c-0.73,2.63-1.45,5.26-2.18,7.89c-0.58,2.1-1.17,4.21-1.75,6.31c-0.39,1.4-0.78,2.79-1.17,4.19c-0.14,0.51-0.28,1.01-0.42,1.52
				c-22.34,72.01-80.57,85.48-107.11,87.81l-1.11,7.77c21.35-1.64,41.63-7.13,60.14-15.76
				C271.17,425.67,247.95,424.31,247.95,424.31z M313.82,328.58c-11.77,64.85-47.26,79.69-47.26,79.69
				c21.67-12.85,28.07-56.04,28.07-56.04c12.29-68.17,34.13-81.35,34.13-81.35C319.87,294.27,313.82,328.58,313.82,328.58z
				 M380.62,272.54c0,0,4.99-18.41,15.21-39.05c0.98,7.48,1.49,15.1,1.49,22.84c0,64.91-35.39,121.55-87.92,151.69
				c10.42-6.41,20.53-15.32,28.81-27.71c0,0,19.11-30.47,26.28-55.38L380.62,272.54z"/>
			<path class="st3" d="M177.51,408.28c-21.67-12.85-28.07-56.04-28.07-56.04c-12.29-68.17-34.13-81.35-34.13-81.35
				c8.87,23.39,14.93,57.7,14.93,57.7C142.02,393.44,177.51,408.28,177.51,408.28z"/>
			<path class="st11" d="M55,206.23c0.02,0.02,0.03,0.03,0.05,0.05c0-0.01,0.01-0.02,0.01-0.03C55.02,206.24,55,206.23,55,206.23z"
				/>
			<path class="st11" d="M144.07,382.24c-13.05-20.27-19.11-57.57-19.11-57.57c-16.07-98.82-67.97-117.75-69.9-118.43
				c0,0.01-0.01,0.02-0.01,0.03c0.53,0.48,1.04,0.98,1.53,1.48c2.42,2.49,4.44,5.21,6.24,8c1.99,3.08,3.7,6.27,5.24,9.5
				c1.59,3.33,3,6.7,4.28,10.11c1.23,3.25,2.33,6.54,3.35,9.83c0.89,2.88,1.7,5.77,2.46,8.67c0.57,2.2,1.1,4.4,1.6,6.61
				c0.78,3.52,1.58,7.06,2.49,10.54c0.66,2.54,1.33,5.08,2.01,7.62c0.78,2.92,1.57,5.84,2.36,8.76c0.84,3.12,1.69,6.24,2.55,9.36
				c0.86,3.14,1.72,6.28,2.58,9.42c0.82,2.98,1.64,5.95,2.46,8.93c0.73,2.63,1.45,5.26,2.18,7.89c0.58,2.1,1.17,4.21,1.75,6.31
				c0.39,1.4,0.78,2.79,1.17,4.19c0.14,0.51,0.28,1.01,0.42,1.52c21.38,68.9,75.61,84.21,103.49,87.44l-0.19-1.74
				C159.12,411.31,144.07,382.24,144.07,382.24z"/>
			<path class="st9" d="M12,186.88c16.27,11.33,28.56,30.77,37.05,48.27c0.74-6.13,1.8-12.16,3.16-18.08
				C32.68,192.27,12,186.88,12,186.88z"/>
			<path class="st9" d="M156.18,418.06c-10.58-4.34-20.63-9.69-30.05-15.93C135.93,409.73,146.4,414.75,156.18,418.06z"/>
			<path class="st9" d="M196.11,424.31c-74.39-11-93.51-68.3-93.51-68.3c-10.24-21.07-23.29-79.89-23.29-79.89
				c-6.44-26.75-16.61-45.7-27.11-59.04c-1.36,5.92-2.41,11.95-3.16,18.08c9.67,19.95,14.4,37.38,14.4,37.38l16.12,52.4
				c7.17,24.91,26.28,55.38,26.28,55.38c6,8.96,12.95,16.11,20.29,21.8c9.42,6.24,19.47,11.59,30.05,15.93
				C177.84,425.38,196.11,424.31,196.11,424.31z"/>
			<path class="st9" d="M309.4,408.03c-4.26,2.45-8.64,4.72-13.12,6.81C300.64,412.96,305.05,410.71,309.4,408.03z"/>
			<g>
				<path class="st9" d="M432.06,186.88c0,0-20.11,5.24-39.4,29.18c1.35,5.7,2.4,11.52,3.17,17.43
					C404.28,216.44,416.31,197.86,432.06,186.88z"/>
				<g>
					<path class="st3" d="M294.62,352.23c0,0-6.4,43.19-28.07,56.04c0,0,35.49-14.84,47.26-79.69c0,0,6.06-34.32,14.93-57.7
						C328.75,270.88,306.91,284.07,294.62,352.23z"/>
					<path class="st11" d="M344.36,335.01c0.14-0.51,0.28-1.01,0.42-1.52c0.39-1.4,0.78-2.79,1.17-4.19
						c0.58-2.1,1.17-4.21,1.75-6.31c0.73-2.63,1.46-5.26,2.18-7.89c0.82-2.98,1.64-5.95,2.46-8.93c0.86-3.14,1.72-6.28,2.58-9.42
						c0.85-3.12,1.7-6.24,2.55-9.36c0.79-2.92,1.58-5.84,2.36-8.76c0.68-2.54,1.35-5.08,2.01-7.62c0.91-3.48,1.71-7.02,2.49-10.54
						c0.49-2.21,1.03-4.41,1.6-6.61c0.75-2.9,1.57-5.79,2.46-8.67c1.02-3.3,2.13-6.58,3.35-9.83c1.28-3.41,2.69-6.78,4.28-10.11
						c1.54-3.23,3.25-6.42,5.24-9.5c1.8-2.79,3.82-5.5,6.24-8c0.51-0.52,1.03-1.03,1.58-1.53c0,0-53.58,17.75-69.96,118.45
						c0,0-6.06,37.3-19.11,57.57c0,0-15.88,30.64-62.54,39.18l-0.2,1.4C263.79,420.49,322.02,407.02,344.36,335.01z"/>
					<path class="st9" d="M364.75,276.12c0,0-13.05,58.83-23.29,79.89c0,0-19.11,57.3-93.51,68.3c0,0,23.21,1.36,48.33-9.48
						c4.48-2.09,8.85-4.36,13.12-6.81c10.42-6.41,20.53-15.32,28.81-27.71c0,0,19.11-30.47,26.28-55.38l16.12-52.4
						c0,0,4.99-18.41,15.21-39.05c-0.77-5.91-1.83-11.72-3.17-17.43C381.88,229.45,371.36,248.68,364.75,276.12z"/>
				</g>
			</g>
		</g>
		<g>
			<g>
				<path class="st3" d="M448.03,116.28c0-1.05,0.68-1.69,1.8-1.69h27.05c10.59,0,16.23,5.27,16.23,15.19v25.73
					c0,9.81-5.63,15.19-16.23,15.19h-13.52v26.58c0,1.06-0.56,1.69-1.8,1.69h-11.72c-1.13,0-1.8-0.63-1.8-1.69V116.28z
					 M473.28,156.77c3.04,0,4.51-1.58,4.51-4.22v-19.83c0-2.74-1.46-4.22-4.51-4.22h-9.92v28.26H473.28z"/>
				<path class="st3" d="M520.73,114.59c1.13,0,1.8,0.63,1.8,1.69v80.99c0,1.06-0.68,1.69-1.8,1.69h-11.72
					c-1.24,0-1.8-0.63-1.8-1.69v-80.99c0-1.05,0.56-1.69,1.8-1.69H520.73z"/>
				<path class="st3" d="M581.58,126.82c0,1.05-0.45,1.79-1.8,1.79h-28.17v21.09h21.53c1.13,0,1.8,0.63,1.8,1.79v10.44
					c0,1.16-0.68,1.79-1.8,1.79h-21.53v21.3h28.17c1.35,0,1.8,0.53,1.8,1.69v10.55c0,1.06-0.45,1.69-1.8,1.69h-41.47
					c-1.01,0-1.69-0.63-1.69-1.69v-80.99c0-1.05,0.68-1.69,1.69-1.69h41.47c1.35,0,1.8,0.63,1.8,1.69V126.82z"/>
				<path class="st3" d="M634.67,198.96c-1.01,0-1.58-0.53-1.8-1.48l-3.15-15.4h-20.06l-3.04,15.4c-0.22,0.95-0.79,1.48-1.8,1.48
					h-12.06c-1.24,0-1.8-0.63-1.47-1.79l18.71-81.1c0.22-1.06,0.9-1.48,1.91-1.48h15.67c1.01,0,1.69,0.42,1.92,1.48l18.71,81.1
					c0.22,1.16-0.22,1.79-1.58,1.79H634.67z M619.68,133.04l-7.21,36.81h14.43L619.68,133.04z"/>
				<path class="st3" d="M686.62,114.59c10.59,0,16.23,5.27,16.23,15.19v11.18c0,1.05-0.56,1.69-1.8,1.69h-11.72
					c-1.13,0-1.8-0.63-1.8-1.69v-8.23c0-2.74-1.47-4.22-4.51-4.22h-5.41c-2.82,0-4.51,1.48-4.51,4.22v14.55l26.82,8.23
					c1.92,0.74,2.93,1.9,2.93,3.9v24.36c0,9.91-5.63,15.19-16.23,15.19H674c-10.48,0-16.23-5.27-16.23-15.19V172.7
					c0-1.16,0.68-1.69,1.8-1.69h11.72c1.24,0,1.8,0.53,1.8,1.69v8.12c0,2.85,1.69,4.22,4.51,4.22h5.41c2.93,0,4.51-1.37,4.51-4.22
					v-14.03l-26.71-8.23c-2.03-0.63-3.04-1.9-3.04-3.9v-24.89c0-9.91,5.75-15.19,16.23-15.19H686.62z"/>
			</g>
		</g>
		<g>
			<g>
				<path class="st10" d="M494.35,215.15c1.13,0,1.8,0.63,1.8,1.69v80.99c0,1.06-0.68,1.69-1.8,1.69H483.2
					c-1.01,0-1.69-0.42-2.03-1.37l-17.24-45.03h-0.56v44.71c0,1.06-0.56,1.69-1.8,1.69h-11.72c-1.13,0-1.8-0.63-1.8-1.69v-80.99
					c0-1.05,0.68-1.69,1.8-1.69h11.16c1.01,0,1.69,0.42,2.03,1.37l17.13,44.82h0.68v-44.5c0-1.05,0.56-1.69,1.8-1.69H494.35z"/>
				<path class="st10" d="M552.62,299.52c-1.01,0-1.58-0.53-1.8-1.48l-3.15-15.4H527.6l-3.04,15.4c-0.22,0.95-0.79,1.48-1.8,1.48
					H510.7c-1.24,0-1.8-0.63-1.46-1.79l18.71-81.1c0.22-1.06,0.9-1.48,1.92-1.48h15.66c1.01,0,1.69,0.42,1.92,1.48l18.71,81.1
					c0.22,1.16-0.23,1.79-1.58,1.79H552.62z M537.63,233.61l-7.21,36.81h14.43L537.63,233.61z"/>
				<path class="st10" d="M611.11,215.15c1.24,0,1.8,0.63,1.8,1.69v10.55c0,1.05-0.56,1.69-1.8,1.69h-13.07v68.76
					c0,1.16-0.56,1.69-1.8,1.69h-11.72c-1.13,0-1.8-0.53-1.8-1.69v-68.76h-13.07c-1.13,0-1.8-0.63-1.8-1.69v-10.55
					c0-1.05,0.68-1.69,1.8-1.69H611.11z"/>
				<path class="st10" d="M638.27,215.15c1.13,0,1.8,0.63,1.8,1.69v80.99c0,1.06-0.68,1.69-1.8,1.69h-11.72
					c-1.24,0-1.8-0.63-1.8-1.69v-80.99c0-1.05,0.56-1.69,1.8-1.69H638.27z"/>
				<path class="st10" d="M654.17,230.34c0-9.91,5.63-15.19,16.23-15.19h12.62c10.59,0,16.23,5.27,16.23,15.19v54
					c0,9.91-5.63,15.19-16.23,15.19h-12.62c-10.59,0-16.23-5.27-16.23-15.19V230.34z M680.2,285.92c2.93,0,4.51-1.37,4.51-4.22
					v-48.72c0-2.74-1.58-4.22-4.51-4.22h-6.54c-2.93,0-4.51,1.48-4.51,4.22v48.72c0,2.85,1.58,4.22,4.51,4.22H680.2z"/>
				<path class="st10" d="M759.65,215.15c1.13,0,1.8,0.63,1.8,1.69v80.99c0,1.06-0.68,1.69-1.8,1.69H748.5
					c-1.01,0-1.69-0.42-2.03-1.37l-17.24-45.03h-0.56v44.71c0,1.06-0.56,1.69-1.8,1.69h-11.72c-1.13,0-1.8-0.63-1.8-1.69v-80.99
					c0-1.05,0.68-1.69,1.8-1.69h11.16c1.01,0,1.69,0.42,2.03,1.37l17.13,44.82h0.68v-44.5c0-1.05,0.56-1.69,1.8-1.69H759.65z"/>
				<path class="st10" d="M817.92,299.52c-1.01,0-1.58-0.53-1.8-1.48l-3.15-15.4H792.9l-3.04,15.4c-0.22,0.95-0.79,1.48-1.8,1.48
					H776c-1.24,0-1.8-0.63-1.47-1.79l18.71-81.1c0.22-1.06,0.9-1.48,1.91-1.48h15.67c1.01,0,1.69,0.42,1.92,1.48l18.71,81.1
					c0.22,1.16-0.22,1.79-1.58,1.79H817.92z M802.93,233.61l-7.21,36.81h14.43L802.93,233.61z"/>
				<path class="st10" d="M859.73,285.6h26.82c1.24,0,1.8,0.63,1.8,1.69v10.55c0,1.16-0.56,1.69-1.8,1.69h-40.35
					c-1.13,0-1.8-0.53-1.8-1.69v-80.99c0-1.05,0.68-1.69,1.8-1.69h11.72c1.24,0,1.8,0.63,1.8,1.69V285.6z"/>
			</g>
		</g>
		<g>
			<g>
				<path class="st3" d="M446.47,333.17c0-9.91,5.63-15.19,16.23-15.19h12.62c10.59,0,16.23,5.27,16.23,15.19v54
					c0,9.91-5.63,15.19-16.23,15.19h-12.62c-10.59,0-16.23-5.27-16.23-15.19V333.17z M472.5,388.74c2.93,0,4.51-1.37,4.51-4.22
					V335.8c0-2.74-1.58-4.22-4.51-4.22h-6.54c-2.93,0-4.51,1.48-4.51,4.22v48.72c0,2.85,1.58,4.22,4.51,4.22H472.5z"/>
				<path class="st3" d="M520.96,388.43h26.82c1.24,0,1.8,0.63,1.8,1.69v10.55c0,1.16-0.56,1.69-1.8,1.69h-40.35
					c-1.13,0-1.8-0.53-1.8-1.69v-80.99c0-1.05,0.68-1.69,1.8-1.69h11.72c1.24,0,1.8,0.63,1.8,1.69V388.43z"/>
				<path class="st3" d="M599.51,317.98c1.69,0,2.48,0.95,1.8,2.43l-20.62,46.93v32.9c0,1.37-0.79,2.11-2.25,2.11h-10.82
					c-1.46,0-2.25-0.74-2.25-2.11v-32.9l-20.62-46.93c-0.68-1.48,0.11-2.43,1.8-2.43h11.27c1.35,0,2.14,0.53,2.59,1.69l12.62,30.27
					l12.62-30.27c0.45-1.16,1.24-1.69,2.59-1.69H599.51z"/>
				<path class="st3" d="M667.47,317.98c1.47,0,2.25,0.74,2.25,2.11v80.15c0,1.37-0.79,2.11-2.25,2.11h-10.48
					c-1.46,0-2.25-0.74-2.25-2.11v-47.46h-0.79l-11.16,47.67c-0.34,1.27-1.13,1.9-2.48,1.9h-5.52c-1.35,0-2.14-0.63-2.48-1.9
					l-11.16-47.67h-0.79v47.46c0,1.37-0.79,2.11-2.25,2.11h-10.37c-1.47,0-2.25-0.74-2.25-2.11v-80.15c0-1.37,0.79-2.11,2.25-2.11
					h14.88c1.35,0,2.14,0.63,2.48,1.9l12.51,52.52l12.51-52.52c0.34-1.27,1.13-1.9,2.48-1.9H667.47z"/>
				<path class="st3" d="M683.82,319.67c0-1.05,0.68-1.69,1.8-1.69h27.05c10.59,0,16.23,5.27,16.23,15.19v25.73
					c0,9.81-5.63,15.19-16.23,15.19h-13.52v26.58c0,1.06-0.56,1.69-1.8,1.69h-11.72c-1.13,0-1.8-0.63-1.8-1.69V319.67z
					 M709.06,360.16c3.04,0,4.51-1.58,4.51-4.22v-19.83c0-2.74-1.46-4.22-4.51-4.22h-9.92v28.26H709.06z"/>
				<path class="st3" d="M756.51,317.98c1.13,0,1.8,0.63,1.8,1.69v80.99c0,1.06-0.68,1.69-1.8,1.69h-11.72
					c-1.24,0-1.8-0.63-1.8-1.69v-80.99c0-1.05,0.56-1.69,1.8-1.69H756.51z"/>
				<path class="st3" d="M814.77,402.35c-1.01,0-1.58-0.53-1.8-1.48l-3.15-15.4h-20.06l-3.04,15.4c-0.22,0.95-0.79,1.48-1.8,1.48
					h-12.06c-1.24,0-1.8-0.63-1.46-1.79l18.71-81.1c0.22-1.06,0.9-1.48,1.91-1.48h15.67c1.01,0,1.69,0.42,1.92,1.48l18.71,81.1
					c0.22,1.16-0.22,1.79-1.58,1.79H814.77z M799.79,336.44l-7.21,36.81H807L799.79,336.44z"/>
				<path class="st3" d="M839.01,319.67c0-1.05,0.56-1.69,1.8-1.69h27.05c10.59,0,16.23,5.38,16.23,15.29v53.89
					c0,9.91-5.63,15.19-16.23,15.19h-27.05c-1.24,0-1.8-0.53-1.8-1.69V319.67z M864.7,388.43c2.93,0,4.51-1.37,4.51-4.22v-47.98
					c0-2.85-1.58-4.32-4.51-4.32h-10.37v56.53H864.7z"/>
				<path class="st10" d="M898.18,320.09c0-1.37,0.79-2.11,2.25-2.11h10.26c1.47,0,2.25,0.74,2.25,2.11v10.34
					c0,1.05-0.22,1.79-0.79,2.64l-6.09,8.65c-0.34,0.53-0.68,0.74-1.35,0.74h-5.07c-0.9,0-1.24-0.53-0.9-1.27l4.51-9.28h-2.82
					c-1.47,0-2.25-0.74-2.25-2.11V320.09z"/>
				<path class="st10" d="M949.9,317.98c1.13,0,1.8,0.63,1.8,1.69v80.99c0,1.06-0.68,1.69-1.8,1.69h-11.72
					c-1.24,0-1.8-0.63-1.8-1.69v-66.65l-6.99,0.84c-1.46,0.21-2.37-0.53-2.37-1.9v-10.12c0-1.37,0.68-2.11,2.14-2.21L949.9,317.98z"
					/>
				<path class="st10" d="M982.7,369.76c-10.26,0-15.78-5.17-15.78-14.76v-22.25c0-9.6,5.52-14.76,15.78-14.76h13.52
					c10.26,0,15.78,5.17,15.78,14.76v27.1c0,2-0.34,3.38-1.13,5.27l-16,35.65c-0.45,1.05-1.24,1.58-2.59,1.58h-11.72
					c-1.69,0-2.37-0.95-1.69-2.43l13.64-30.16H982.7z M986.31,331.9c-2.93,0-4.51,1.48-4.51,4.22v15.5c0,2.74,1.58,4.22,4.51,4.22
					h6.31c2.93,0,4.51-1.48,4.51-4.22v-15.5c0-2.74-1.58-4.22-4.51-4.22H986.31z"/>
			</g>
		</g>
	</g>
</g>
</svg>
